<?xml version="1.0" encoding="utf-8"?>
<!-- Generator: Adobe Illustrator 27.5.0, SVG Export Plug-In . SVG Version: 6.00 Build 0)  -->
<svg version="1.1" id="Layer_1" xmlns="http://www.w3.org/2000/svg" xmlns:xlink="http://www.w3.org/1999/xlink" x="0px" y="0px"
	 viewBox="0 0 612 63" style="enable-background:new 0 0 612 63;" xml:space="preserve">
<style type="text/css">
	.st0{fill-rule:evenodd;clip-rule:evenodd;fill:#E1F4A0;}
</style>
<path class="st0" d="M24.7,43.1c-1.2,0.2-7.9,0.3-10.5,0.5s-5.4,0.6-8.5,0.5s-3.8,3-4-0.5s-1.5-12-1.5-16s0.4-6.4,0.5-10
	s-2-3.3,0.5-6s13.7-3.1,16.5-4.5s8.8-4,11.5-4c2.7,0,10.8,0.4,13.5,0.5s7.6-0.8,15-1s21.5-1.1,29-1c7.5,0.1,17.7,1.1,24,2.5
	s18.9,5.1,26,6s25.8,0.4,31.5,0.5c5.7,0.1,11.4-0.4,20.5,1c9.1,1.4,17,2.4,23,2.5c6,0.1,29.2-1.2,34-1c4.8,0.2,5.1-0.3,13.5-0.5
	c8.4-0.2,26.3-0.9,31.5-1s14.2-0.3,18-1c3.8-0.7,6.2-2,14.5-2.5c8.3-0.5,11.8-0.8,25.5,0s24.3,0.8,31.5,0.5c7.2-0.3,16.4,0.7,26,0.5
	c9.6-0.2,41.4,0,50.5,0.5c9.1,0.5,27.2,1.1,38,1c10.8-0.1,33.6,1.1,37.5,1c3.9-0.1,24.9,0.3,36,1c11.1,0.7,23.8-0.1,29.5,1
	s12.5,1.5,12.5,1.5s1.9,1.6,2,3c0.1,1.4-0.1,33.3-0.5,35c-0.4,1.7,0,4-2,5c-2,1-12.6,2.6-16.5,2.5s-23.2,1.5-43,0
	c-19.8-1.5-37.3-3.2-42-3.5c-4.7-0.3-26.9-0.6-33-0.5c-6.1,0.1-35.7-1-38-1c-2.3,0-14.4-0.4-20-0.5c-5.6-0.1-39.8,0.6-42,0.5
	c-2.2-0.1-23.1-1-27-1s-18,0.1-21.5,0.5c-3.5,0.4-12.5,2.6-17.5,3c-5,0.4-28.1,2.1-32.5,2c-4.4-0.1-29.3-0.7-31.5-0.5
	c-2.2,0.2-33.5,0.9-37.5,1c-4,0.1-22.1-0.7-28.5-1c-6.4-0.3-20.8-1.9-23-2c-2.2-0.1-12.8-0.2-19,0c-6.2,0.2-8.9,0.5-14.5,0
	s-14.3-2.7-20.5-4.5c-6.2-1.8-11.7-4.4-19-5c-7.3-0.6-11.6,0.3-17.5,0s-20.8-2.9-25-3.5c-4.2-0.6-11-1.5-11-1.5S25.9,42.9,24.7,43.1
	z"/>
</svg>
